<?xml version="1.0" standalone="no"?>
<!DOCTYPE svg PUBLIC "-//W3C//DTD SVG 20010904//EN"
 "http://www.w3.org/TR/2001/REC-SVG-20010904/DTD/svg10.dtd">
<svg version="1.0" xmlns="http://www.w3.org/2000/svg"
 width="1000px" height="1000px" viewBox="0 0 272.000000 272.000000"
 preserveAspectRatio="xMidYMid meet">

<g transform="translate(0.000000,272.000000) scale(0.100000,-0.100000)"
fill="#000000" stroke="none">
<path d="M1610 1983 c-24 -9 -51 -36 -67 -67 -20 -38 -10 -87 26 -125 25 -27
36 -31 81 -31 43 0 56 5 80 28 37 38 47 89 25 135 -24 51 -92 79 -145 60z"/>
<path d="M1143 1788 c-90 -90 -113 -119 -113 -141 0 -16 12 -73 26 -127 25
-90 29 -99 54 -103 37 -8 89 -59 96 -95 6 -28 12 -32 88 -53 44 -12 100 -24
124 -27 l42 -5 111 109 c61 60 115 119 119 130 6 14 -1 57 -21 129 -27 103
-39 124 -66 125 -21 0 -75 53 -89 87 -12 28 -23 35 -86 54 -40 12 -95 24 -123
26 l-50 4 -112 -113z"/>
<path d="M984 1356 c-29 -29 -34 -41 -34 -81 0 -40 5 -52 34 -81 29 -29 41
-34 79 -34 109 0 156 123 77 201 -23 24 -37 29 -75 29 -40 0 -52 -5 -81 -34z"/>
</g>
</svg>